<mxfile host="app.diagrams.net" agent="Mozilla/5.0 (X11; Linux x86_64) AppleWebKit/537.36 (KHTML, like Gecko) Chrome/125.0.0.0 Safari/537.36" version="24.7.5">
  <diagram id="C5RBs43oDa-KdzZeNtuy" name="Page-1">
    <mxGraphModel dx="1362" dy="793" grid="1" gridSize="10" guides="1" tooltips="1" connect="1" arrows="1" fold="1" page="1" pageScale="1" pageWidth="827" pageHeight="1169" math="0" shadow="0">
      <root>
        <mxCell id="WIyWlLk6GJQsqaUBKTNV-0" />
        <mxCell id="WIyWlLk6GJQsqaUBKTNV-1" parent="WIyWlLk6GJQsqaUBKTNV-0" />
        <mxCell id="uiZzqo5WFP3eSgHCoz3k-4" style="edgeStyle=orthogonalEdgeStyle;rounded=0;orthogonalLoop=1;jettySize=auto;html=1;exitX=1;exitY=0.5;exitDx=0;exitDy=0;entryX=0;entryY=0.5;entryDx=0;entryDy=0;strokeWidth=4;fontSize=12;fontStyle=1" edge="1" parent="WIyWlLk6GJQsqaUBKTNV-1" source="WIyWlLk6GJQsqaUBKTNV-3" target="WIyWlLk6GJQsqaUBKTNV-7">
          <mxGeometry relative="1" as="geometry" />
        </mxCell>
        <mxCell id="WIyWlLk6GJQsqaUBKTNV-3" value="Entities in&lt;div style=&quot;font-size: 16px;&quot;&gt;IOB Format&lt;/div&gt;" style="rounded=1;whiteSpace=wrap;html=1;fontSize=16;glass=0;strokeWidth=4;shadow=0;fontStyle=1" parent="WIyWlLk6GJQsqaUBKTNV-1" vertex="1">
          <mxGeometry x="280" y="120" width="160" height="80" as="geometry" />
        </mxCell>
        <mxCell id="uiZzqo5WFP3eSgHCoz3k-36" style="edgeStyle=orthogonalEdgeStyle;rounded=0;orthogonalLoop=1;jettySize=auto;html=1;exitX=1;exitY=0.5;exitDx=0;exitDy=0;fontSize=12;fontStyle=1;strokeWidth=4;" edge="1" parent="WIyWlLk6GJQsqaUBKTNV-1" source="WIyWlLk6GJQsqaUBKTNV-7">
          <mxGeometry relative="1" as="geometry">
            <mxPoint x="740" y="160" as="targetPoint" />
          </mxGeometry>
        </mxCell>
        <mxCell id="WIyWlLk6GJQsqaUBKTNV-7" value="Visualization based on Recursion Tree" style="rounded=1;whiteSpace=wrap;html=1;fontSize=16;glass=0;strokeWidth=4;shadow=0;fontStyle=1" parent="WIyWlLk6GJQsqaUBKTNV-1" vertex="1">
          <mxGeometry x="520" y="120" width="160" height="80" as="geometry" />
        </mxCell>
        <mxCell id="uiZzqo5WFP3eSgHCoz3k-13" style="edgeStyle=orthogonalEdgeStyle;rounded=0;orthogonalLoop=1;jettySize=auto;html=1;exitX=1;exitY=0.5;exitDx=0;exitDy=0;strokeWidth=4;fontSize=12;fontStyle=1;entryX=0;entryY=0.5;entryDx=0;entryDy=0;" edge="1" parent="WIyWlLk6GJQsqaUBKTNV-1" source="uiZzqo5WFP3eSgHCoz3k-0" target="WIyWlLk6GJQsqaUBKTNV-3">
          <mxGeometry relative="1" as="geometry">
            <mxPoint x="260" y="160" as="targetPoint" />
          </mxGeometry>
        </mxCell>
        <mxCell id="uiZzqo5WFP3eSgHCoz3k-0" value="Lorem ipsum dolor sit amet, consectetur adipisicing elit, sed do eiusmod tempor incididunt ut labore et dolore magna aliqua.&#xa;" style="text;overflow=hidden;rounded=0;spacing=0;verticalAlign=top;whiteSpace=wrap;align=left;" vertex="1" parent="WIyWlLk6GJQsqaUBKTNV-1">
          <mxGeometry x="30" y="125" width="180" height="70" as="geometry" />
        </mxCell>
        <mxCell id="uiZzqo5WFP3eSgHCoz3k-8" value="Input Text" style="text;html=1;align=center;verticalAlign=middle;whiteSpace=wrap;rounded=0;fontStyle=1;fontSize=14;" vertex="1" parent="WIyWlLk6GJQsqaUBKTNV-1">
          <mxGeometry x="50" y="200" width="110" height="30" as="geometry" />
        </mxCell>
        <mxCell id="uiZzqo5WFP3eSgHCoz3k-14" value="" style="ellipse;whiteSpace=wrap;html=1;fillColor=#f8cecc;strokeColor=#b85450;strokeWidth=2;" vertex="1" parent="WIyWlLk6GJQsqaUBKTNV-1">
          <mxGeometry x="810" y="97.5" width="40" height="20" as="geometry" />
        </mxCell>
        <mxCell id="uiZzqo5WFP3eSgHCoz3k-19" value="" style="ellipse;whiteSpace=wrap;html=1;strokeWidth=2;fillColor=#fff2cc;strokeColor=#d6b656;" vertex="1" parent="WIyWlLk6GJQsqaUBKTNV-1">
          <mxGeometry x="780" y="132.5" width="40" height="20" as="geometry" />
        </mxCell>
        <mxCell id="uiZzqo5WFP3eSgHCoz3k-20" value="" style="ellipse;whiteSpace=wrap;html=1;fillColor=#dae8fc;strokeColor=#6c8ebf;strokeWidth=2;" vertex="1" parent="WIyWlLk6GJQsqaUBKTNV-1">
          <mxGeometry x="840" y="132.5" width="40" height="20" as="geometry" />
        </mxCell>
        <mxCell id="uiZzqo5WFP3eSgHCoz3k-21" value="" style="ellipse;whiteSpace=wrap;html=1;strokeWidth=2;fillColor=#d5e8d4;strokeColor=#82b366;" vertex="1" parent="WIyWlLk6GJQsqaUBKTNV-1">
          <mxGeometry x="870" y="167.5" width="40" height="20" as="geometry" />
        </mxCell>
        <mxCell id="uiZzqo5WFP3eSgHCoz3k-22" value="" style="ellipse;whiteSpace=wrap;html=1;strokeWidth=2;fillColor=#f5f5f5;fontColor=#333333;strokeColor=#666666;" vertex="1" parent="WIyWlLk6GJQsqaUBKTNV-1">
          <mxGeometry x="820" y="167.5" width="40" height="20" as="geometry" />
        </mxCell>
        <mxCell id="uiZzqo5WFP3eSgHCoz3k-25" value="" style="endArrow=none;html=1;rounded=0;entryX=0.5;entryY=1;entryDx=0;entryDy=0;exitX=0.5;exitY=0;exitDx=0;exitDy=0;strokeWidth=2;" edge="1" parent="WIyWlLk6GJQsqaUBKTNV-1" source="uiZzqo5WFP3eSgHCoz3k-20" target="uiZzqo5WFP3eSgHCoz3k-14">
          <mxGeometry width="50" height="50" relative="1" as="geometry">
            <mxPoint x="580" y="327.5" as="sourcePoint" />
            <mxPoint x="630" y="277.5" as="targetPoint" />
          </mxGeometry>
        </mxCell>
        <mxCell id="uiZzqo5WFP3eSgHCoz3k-26" value="" style="endArrow=none;html=1;rounded=0;entryX=0.5;entryY=1;entryDx=0;entryDy=0;exitX=0.5;exitY=0;exitDx=0;exitDy=0;strokeWidth=2;" edge="1" parent="WIyWlLk6GJQsqaUBKTNV-1" source="uiZzqo5WFP3eSgHCoz3k-19" target="uiZzqo5WFP3eSgHCoz3k-14">
          <mxGeometry width="50" height="50" relative="1" as="geometry">
            <mxPoint x="870" y="142.5" as="sourcePoint" />
            <mxPoint x="840" y="127.5" as="targetPoint" />
          </mxGeometry>
        </mxCell>
        <mxCell id="uiZzqo5WFP3eSgHCoz3k-29" value="" style="endArrow=none;html=1;rounded=0;exitX=0.5;exitY=0;exitDx=0;exitDy=0;entryX=0.5;entryY=1;entryDx=0;entryDy=0;strokeWidth=2;" edge="1" parent="WIyWlLk6GJQsqaUBKTNV-1" source="uiZzqo5WFP3eSgHCoz3k-22" target="uiZzqo5WFP3eSgHCoz3k-20">
          <mxGeometry width="50" height="50" relative="1" as="geometry">
            <mxPoint x="890" y="162.5" as="sourcePoint" />
            <mxPoint x="860" y="147.5" as="targetPoint" />
          </mxGeometry>
        </mxCell>
        <mxCell id="uiZzqo5WFP3eSgHCoz3k-30" value="" style="endArrow=none;html=1;rounded=0;entryX=0.5;entryY=1;entryDx=0;entryDy=0;exitX=0.5;exitY=0;exitDx=0;exitDy=0;strokeWidth=2;" edge="1" parent="WIyWlLk6GJQsqaUBKTNV-1" source="uiZzqo5WFP3eSgHCoz3k-21" target="uiZzqo5WFP3eSgHCoz3k-20">
          <mxGeometry width="50" height="50" relative="1" as="geometry">
            <mxPoint x="900" y="172.5" as="sourcePoint" />
            <mxPoint x="870" y="157.5" as="targetPoint" />
          </mxGeometry>
        </mxCell>
        <mxCell id="uiZzqo5WFP3eSgHCoz3k-37" value="" style="ellipse;whiteSpace=wrap;html=1;fillColor=#dae8fc;strokeColor=#6c8ebf;strokeWidth=2;" vertex="1" parent="WIyWlLk6GJQsqaUBKTNV-1">
          <mxGeometry x="910" y="97.5" width="40" height="20" as="geometry" />
        </mxCell>
        <mxCell id="uiZzqo5WFP3eSgHCoz3k-41" value="" style="ellipse;whiteSpace=wrap;html=1;strokeWidth=2;fillColor=#d5e8d4;strokeColor=#82b366;" vertex="1" parent="WIyWlLk6GJQsqaUBKTNV-1">
          <mxGeometry x="910" y="140" width="40" height="20" as="geometry" />
        </mxCell>
        <mxCell id="uiZzqo5WFP3eSgHCoz3k-42" value="" style="endArrow=none;html=1;rounded=0;entryX=0.5;entryY=1;entryDx=0;entryDy=0;strokeWidth=2;" edge="1" parent="WIyWlLk6GJQsqaUBKTNV-1" target="uiZzqo5WFP3eSgHCoz3k-37">
          <mxGeometry width="50" height="50" relative="1" as="geometry">
            <mxPoint x="930" y="140" as="sourcePoint" />
            <mxPoint x="730" y="277.5" as="targetPoint" />
          </mxGeometry>
        </mxCell>
        <mxCell id="uiZzqo5WFP3eSgHCoz3k-46" value="Visual Space" style="text;html=1;align=center;verticalAlign=middle;whiteSpace=wrap;rounded=0;fontStyle=1;fontSize=14;" vertex="1" parent="WIyWlLk6GJQsqaUBKTNV-1">
          <mxGeometry x="805" y="200" width="110" height="30" as="geometry" />
        </mxCell>
      </root>
    </mxGraphModel>
  </diagram>
</mxfile>
